<svg xmlns="http://www.w3.org/2000/svg" viewBox="0 0 256 256" width="256" height="256" aria-hidden="true">
  <rect x="6" y="6" width="244" height="244" rx="12" ry="12" fill="#ffffff"/>
  <g fill="none" stroke="#6C1AA6" stroke-width="12" stroke-linecap="round" stroke-linejoin="round">
    <path d="M36 96v84a12 12 0 0 0 12 12h160a12 12 0 0 0 12-12V96" />
    <path d="M36 96l88 66 88-66" />
    <rect x="72" y="28" width="112" height="96" rx="8" ry="8" />
    <path d="M72 52h112" />
    <path d="M92 72h72" />
    <path d="M92 88h56" />
    <path d="M92 104h40" />
  </g>
  <path d="M152 64
           c0-6 -6-10 -12-10
           c-6 0 -12 4 -12 10
           c0 6 6 10 12 10
           c6 0 12 4 12 10
           c0 6-6 10-12 10
           c-6 0-12-4-12-10"
        fill="none" stroke="#6C1AA6" stroke-width="6" stroke-linecap="round" stroke-linejoin="round"/>
  <ellipse cx="128" cy="198" rx="56" ry="8" fill="#000" opacity="0.06"/>
</svg>
